<svg xmlns="http://www.w3.org/2000/svg" xmlns:xlink="http://www.w3.org/1999/xlink" xmlns:inkscape="http://www.inkscape.org/namespaces/inkscape" version="1.1" width="174" height="106" viewBox="0 0 174 106">
<defs>
<path id="font_1_54" d="M.6589966 .4441223 .6299896 .6806946H.037994386V.6376953H.14399719V.042999269H.037994386V0C.066986087 .0019989014 .18099976 .0019989014 .21798706 .0019989014L.40899659 0V.042999269H.27598573V.31929017H.33099366C.4269867 .31929017 .43499757 .2752533 .43499757 .2021637H.47698976V.47903443H.43499757C.43499757 .40620423 .4269867 .3623047 .33099366 .3623047H.27598573V.6376953H.4189911C.5779877 .6376953 .6029968 .56484988 .61698916 .4441223H.6589966Z"/>
<path id="font_1_96" d="M.4269867 .3711853C.4269867 .42218019 .375 .4501953 .32699586 .4501953 .24798584 .4501953 .21398926 .38119508 .19999695 .33918763H.19898987V.4501953L.034988405 .4423828V.3993683C.09700012 .3993683 .10398865 .3993683 .10398865 .3603363V.042999269H.034988405V0C.057998659 .0019989014 .1329956 .0019989014 .16099549 .0019989014 .18998719 .0019989014 .2709961 .0019989014 .29499818 0V.042999269H.20799256V.22518921C.20799256 .25819398 .21499634 .41719056 .33198548 .41719056 .31799317 .40618897 .31098939 .38919068 .31098939 .3711853 .31098939 .33018495 .34399415 .31318666 .36898805 .31318666 .3939972 .31318666 .4269867 .33018495 .4269867 .3711853Z"/>
<path id="font_1_28" d="M.54100039 .022140503C.54100039 .043136598 .5319977 .043136598 .5179901 .043136598 .45498658 .044128419 .45498658 .060134889 .45498658 .08312988V.29911805C.45498658 .39111329 .38198854 .453125 .24099732 .453125 .18499756 .453125 .066986087 .44812013 .066986087 .36412049 .066986087 .32211305 .09899902 .30412293 .12599182 .30412293 .1559906 .30412293 .18499756 .32511903 .18499756 .3631134 .18499756 .3821106 .17799378 .40011598 .16099549 .41111756 .19400025 .42012025 .21798706 .42012025 .23699951 .42012025 .30499269 .42012025 .34599305 .3821106 .34599305 .30012513V.26011659C.18798828 .26011659 .0289917 .21612549 .0289917 .10513306 .0289917 .014129639 .14498902-.005859375 .21398926-.005859375 .29100038-.005859375 .33999635 .036132814 .3600006 .0801239 .3600006 .042999269 .3600006 0 .46099855 0H.5119934C.5329895 0 .54100039 0 .54100039 .021987915V.022140503M.34599305 .13899231C.34599305 .04499817 .2619934 .026992798 .22999573 .026992798 .18099976 .026992798 .13999939 .05999756 .13999939 .10598755 .13999939 .19699097 .24798584 .22799683 .34599305 .23298645V.13899231Z"/>
<path id="font_1_43" d="M.46798707 .117126468C.46798707 .12913513 .45700074 .12913513 .44699098 .12913513 .43099977 .12913513 .42999269 .12812805 .4249878 .11613464 .41799928 .09713745 .3909912 .030136109 .29899598 .030136109 .1579895 .030136109 .1579895 .1821289 .1579895 .22712708 .1579895 .28611756 .15899658 .41711427 .2899933 .41711427 .29699708 .41711427 .35598756 .41511537 .35598756 .41011048 .35598756 .41011048 .35499574 .40811158 .35299684 .40711976 .34999085 .40411378 .33699037 .38911439 .33699037 .36412049 .33699037 .32211305 .37098695 .30511476 .3959961 .30511476 .4169922 .30511476 .45498658 .31811524 .45498658 .3651123 .45498658 .44711305 .33999635 .453125 .28599549 .453125 .10798645 .453125 .037994386 .33711244 .037994386 .22212219 .037994386 .086135867 .1329956-.005859375 .27999879-.005859375 .43699647-.005859375 .46798707 .11012268 .46798707 .117126468Z"/>
<path id="font_1_105" d="M.37399293 .124176029V.17721558H.33198548V.1251831C.33198548 .059143068 .3019867 .030136109 .2709961 .030136109 .21099854 .030136109 .21099854 .09716797 .21099854 .12017822V.4013214H.35499574V.44433595H.21099854V.6357422H.16899109C.16799927 .53652957 .11999512 .43733216 .020996094 .43432618V.4013214H.101989749V.123184207C.101989749 .01713562 .18399048-.005859375 .2559967-.005859375 .32998658-.005859375 .37399293 .05014038 .37399293 .124176029Z"/>
<path id="font_1_66" d="M.2789917 0V.042999269H.21699524V.4501953L.04699707 .4423828V.3993683C.10598755 .3993683 .11299133 .3993683 .11299133 .3603363V.042999269H.04399109V0C.066986087 .0019989014 .13598633 .0019989014 .16299439 .0019989014 .19099427 .0019989014 .25498963 .0019989014 .2789917 0M.22898865 .6081238C.22898865 .64912417 .19499207 .68013 .15699768 .68013 .115997318 .68013 .083999637 .64712527 .083999637 .6081238 .083999637 .5671234 .117996219 .5361328 .1559906 .5361328 .19699097 .5361328 .22898865 .5691223 .22898865 .6081238Z"/>
<path id="font_1_81" d="M.5299988 .21913147C.5299988 .35412599 .43798829 .453125 .2809906 .453125 .117996219 .453125 .0309906 .3491211 .0309906 .21913147 .0309906 .088134769 .12298584-.005859375 .27999879-.005859375 .44299317-.005859375 .5299988 .09312439 .5299988 .21913147M.4099884 .22912598C.4099884 .14613343 .4099884 .030136109 .2809906 .030136109 .15098572 .030136109 .15098572 .14712525 .15098572 .22912598 .15098572 .27612306 .15098572 .3261261 .16999817 .36212159 .19198609 .40211488 .23699951 .42012025 .27999879 .42012025 .33699037 .42012025 .37298585 .39311219 .3899994 .3651123 .4099884 .32911683 .4099884 .27713014 .4099884 .22912598Z"/>
<path id="font_1_77" d="M.59999087 0V.042999269H.5309906V.30613709C.5309906 .40118409 .48999024 .4501953 .37998963 .4501953 .30799867 .4501953 .24598694 .41519166 .21199036 .34014894H.21099854V.4501953L.041992189 .4423828V.3993683C.10398865 .3993683 .11099243 .3993683 .11099243 .36035157V.042999269H.041992189V0C.06498718 .0019989014 .13699341 .0019989014 .16499329 .0019989014 .19299317 .0019989014 .2659912 .0019989014 .2889862 0V.042999269H.21998596V.25627137C.21998596 .3643341 .2999878 .41719056 .3639984 .41719056 .40098573 .41719056 .42199708 .3932495 .42199708 .31733705V.042999269H.35299684V0C.37599183 .0019989014 .44799806 .0019989014 .47599793 .0019989014 .5039978 .0019989014 .57699587 .0019989014 .59999087 0Z"/>
<path id="font_1_98" d="M.40499879 .13912964C.40499879 .18711853 .3789978 .22012329 .35899354 .23812866 .31799317 .27212525 .28399659 .27812196 .22999573 .28811646 .1659851 .29911805 .10598755 .31011964 .10598755 .35812379 .10598755 .42311097 .19499207 .42311097 .21598816 .42311097 .32699586 .42311097 .33299256 .3531189 .33499146 .328125 .33599855 .3151245 .34399415 .3151245 .35598756 .3151245 .3769989 .3151245 .3769989 .31811524 .3769989 .34111024V.42712403C.3769989 .44612123 .3769989 .453125 .3619995 .453125 .35598756 .453125 .35398866 .453125 .33898927 .4441223 .33499146 .44111634 .32398988 .43411256 .31900025 .43112184 .29100038 .44711305 .2539978 .453125 .21798706 .453125 .18798828 .453125 .037994386 .453125 .037994386 .32312013 .037994386 .21812439 .1619873 .19612122 .19299317 .19113159 .21998596 .18612671 .25299073 .18013 .25698854 .18013 .29699708 .17112732 .33699037 .14613343 .33699037 .10412598 .33699037 .027130127 .24598694 .027130127 .22499085 .027130127 .17399597 .027130127 .11099243 .043136598 .08299255 .14012146 .07699585 .16012573 .07598877 .16113281 .05899048 .16113281 .037994386 .16113281 .037994386 .15812683 .037994386 .13513184V.020126343C.037994386 .0011291504 .037994386-.005859375 .052993776-.005859375 .05999756-.005859375 .06199646-.005859375 .08198547 .010131836L.10798645 .029129029C.15299988-.005859375 .20698548-.005859375 .22499085-.005859375 .27999879-.005859375 .40499879 .006134033 .40499879 .13912964Z"/>
<path id="font_1_95" d="M.83499148 .0921936C.83499148 .109176639 .82699587 .11216736 .81399539 .11216736 .79499819 .11216736 .7939911 .10517883 .79299929 .0921936 .7879944 .042251588 .7569885 .021270752 .72898867 .021270752 .6649933 .021270752 .6579895 .0881958 .6499939 .18008423 .6439972 .23301697 .6369934 .30693055 .5289917 .3399048 .6639862 .3758545 .69699099 .44776917 .69699099 .501709 .69699099 .601593 .59199526 .6855469 .40699769 .6855469H.037994386V.64253237H.14399719V.042999269H.037994386V0C.066986087 .0019989014 .17098999 .0019989014 .20698548 .0019989014 .24299622 .0019989014 .34799195 .0019989014 .3769989 0V.042999269H.2709961V.32714845H.3899994C.42999269 .32714845 .46199037 .31513978 .48399354 .28912355 .5139923 .25509645 .5139923 .23309326 .5139923 .1660614 .5139923 .09901428 .5139923 .057998659 .5649872 .023986817 .61698916-.010726929 .69898989-.01171875 .72099307-.01171875 .82299807-.01171875 .83499148 .07824707 .83499148 .09223938V.0921936M.55599978 .50183108C.55599978 .44696046 .5549927 .36013795 .3880005 .36013795H.2709961V.64253237H.3899994C.5529938 .64253237 .55599978 .5607147 .55599978 .50183108Z"/>
</defs>
<path transform="matrix(1.00002,0,0,-1.00002,87.33537,53.02274)" d="M17.00803 0C17.00803 28.18019-5.83588 51.02411-34.01608 51.02411-62.19627 51.02411-85.04019 28.18019-85.04019 0-85.04019-28.18019-62.19627-51.02411-34.01608-51.02411-5.83588-51.02411 17.00803-28.18019 17.00803 0ZM-34.01608 0" fill="#e6e6ff" fill-opacity=".6"/>
<path transform="matrix(1.00002,0,0,-1.00002,87.33537,53.02274)" stroke-width=".79701" stroke-linecap="butt" stroke-miterlimit="10" stroke-linejoin="miter" fill="none" stroke="#6666ff" d="M17.00803 0C17.00803 28.18019-5.83588 51.02411-34.01608 51.02411-62.19627 51.02411-85.04019 28.18019-85.04019 0-85.04019-28.18019-62.19627-51.02411-34.01608-51.02411-5.83588-51.02411 17.00803-28.18019 17.00803 0ZM-34.01608 0"/>
<path transform="matrix(1.00002,0,0,-1.00002,87.33537,53.02274)" d="M85.04019 0C85.04019 28.18019 62.19627 51.02411 34.01608 51.02411 5.83588 51.02411-17.00803 28.18019-17.00803 0-17.00803-28.18019 5.83588-51.02411 34.01608-51.02411 62.19627-51.02411 85.04019-28.18019 85.04019 0ZM34.01608 0" fill="#ffe6e6" fill-opacity=".6"/>
<path transform="matrix(1.00002,0,0,-1.00002,87.33537,53.02274)" stroke-width=".79701" stroke-linecap="butt" stroke-miterlimit="10" stroke-linejoin="miter" fill="none" stroke="#ff6666" d="M85.04019 0C85.04019 28.18019 62.19627 51.02411 34.01608 51.02411 5.83588 51.02411-17.00803 28.18019-17.00803 0-17.00803-28.18019 5.83588-51.02411 34.01608-51.02411 62.19627-51.02411 85.04019-28.18019 85.04019 0ZM34.01608 0"/>
<path transform="matrix(1.00002,0,0,-1.00002,87.33537,53.02274)" stroke-width=".79701" stroke-linecap="butt" stroke-miterlimit="10" stroke-linejoin="miter" fill="none" stroke="#6666ff" d="M17.00803 0C17.00803 28.18019-5.83588 51.02411-34.01608 51.02411-62.19627 51.02411-85.04019 28.18019-85.04019 0-85.04019-28.18019-62.19627-51.02411-34.01608-51.02411-5.83588-51.02411 17.00803-28.18019 17.00803 0ZM-34.01608 0"/>
<path transform="matrix(1.00002,0,0,-1.00002,87.33537,53.02274)" stroke-width=".79701" stroke-linecap="butt" stroke-miterlimit="10" stroke-linejoin="miter" fill="none" stroke="#ff6666" d="M85.04019 0C85.04019 28.18019 62.19627 51.02411 34.01608 51.02411 5.83588 51.02411-17.00803 28.18019-17.00803 0-17.00803-28.18019 5.83588-51.02411 34.01608-51.02411 62.19627-51.02411 85.04019-28.18019 85.04019 0ZM34.01608 0"/>
<use data-text="F" xlink:href="#font_1_54" transform="matrix(11.95544,0,0,-11.95544,16.195954,57.05782)" fill="#0000cc"/>
<use data-text="r" xlink:href="#font_1_96" transform="matrix(11.95544,0,0,-11.95544,23.536606,57.05782)" fill="#0000cc"/>
<use data-text="a" xlink:href="#font_1_28" transform="matrix(11.95544,0,0,-11.95544,29.036103,57.05782)" fill="#0000cc"/>
<use data-text="c" xlink:href="#font_1_43" transform="matrix(11.95544,0,0,-11.95544,35.575716,57.05782)" fill="#0000cc"/>
<use data-text="t" xlink:href="#font_1_105" transform="matrix(11.95544,0,0,-11.95544,41.553438,57.05782)" fill="#0000cc"/>
<use data-text="i" xlink:href="#font_1_66" transform="matrix(11.95544,0,0,-11.95544,46.789918,57.05782)" fill="#0000cc"/>
<use data-text="o" xlink:href="#font_1_81" transform="matrix(11.95544,0,0,-11.95544,50.531969,57.05782)" fill="#0000cc"/>
<use data-text="n" xlink:href="#font_1_77" transform="matrix(11.95544,0,0,-11.95544,57.26288,57.05782)" fill="#0000cc"/>
<use data-text="s" xlink:href="#font_1_98" transform="matrix(11.95544,0,0,-11.95544,64.73503,57.05782)" fill="#0000cc"/>
<use data-text="R" xlink:href="#font_1_95" transform="matrix(11.95544,0,0,-11.95544,112.76288,57.05182)" fill="#cc0000"/>
<use data-text="a" xlink:href="#font_1_28" transform="matrix(11.95544,0,0,-11.95544,122.79349,57.05182)" fill="#cc0000"/>
<use data-text="t" xlink:href="#font_1_105" transform="matrix(11.95544,0,0,-11.95544,129.33312,57.05182)" fill="#cc0000"/>
<use data-text="i" xlink:href="#font_1_66" transform="matrix(11.95544,0,0,-11.95544,134.5696,57.05182)" fill="#cc0000"/>
<use data-text="o" xlink:href="#font_1_81" transform="matrix(11.95544,0,0,-11.95544,138.31163,57.05182)" fill="#cc0000"/>
<use data-text="s" xlink:href="#font_1_98" transform="matrix(11.95544,0,0,-11.95544,145.04254,57.05182)" fill="#cc0000"/>
</svg>
